<svg width="142" height="142" viewBox="0 0 142 142" fill="none" xmlns="http://www.w3.org/2000/svg">
<rect width="142" height="142" rx="71" fill="#F6FBFA"/>
<path fill-rule="evenodd" clip-rule="evenodd" d="M98.3333 36.8332C98.3333 34.9462 96.8036 33.4165 94.9166 33.4165H53.9166C48.2557 33.4165 43.6666 38.0056 43.6666 43.6665V98.3332C43.6666 103.994 48.2557 108.583 53.9166 108.583H94.9166C96.8036 108.583 98.3333 107.053 98.3333 105.167V36.8332ZM91.5 40.2498V101.75H53.9166C52.0297 101.75 50.5 100.22 50.5 98.3332V43.6665C50.5 41.7795 52.0297 40.2498 53.9166 40.2498H91.5Z" fill="#2EC4B6"/>
<path fill-rule="evenodd" clip-rule="evenodd" d="M98.3333 91.4997C98.3333 89.6127 96.8036 88.083 94.9166 88.083H53.9166C48.2557 88.083 43.6666 92.6721 43.6666 98.333C43.6666 103.994 48.2557 108.583 53.9166 108.583H94.9166C96.8036 108.583 98.3333 107.053 98.3333 105.166V91.4997ZM91.5 94.9163V101.75H53.9166C52.0297 101.75 50.5 100.22 50.5 98.333C50.5 96.446 52.0297 94.9163 53.9166 94.9163H91.5Z" fill="#2EC4B6"/>
<path fill-rule="evenodd" clip-rule="evenodd" d="M88.0833 47.0832C88.0833 45.1962 86.5536 43.6665 84.6666 43.6665H57.3333C55.4463 43.6665 53.9166 45.1962 53.9166 47.0832V60.7498C53.9166 62.6368 55.4463 64.1665 57.3333 64.1665H84.6666C86.5536 64.1665 88.0833 62.6368 88.0833 60.7498V47.0832ZM81.25 50.4998V57.3332H60.75V50.4998H81.25Z" fill="#2EC4B6"/>
</svg>
