<?xml version="1.0" standalone="no"?>
<!DOCTYPE svg PUBLIC "-//W3C//DTD SVG 20010904//EN"
 "http://www.w3.org/TR/2001/REC-SVG-20010904/DTD/svg10.dtd">
<svg version="1.0" xmlns="http://www.w3.org/2000/svg"
 width="64.000000pt" height="64.000000pt" viewBox="0 0 64.000000 64.000000"
 preserveAspectRatio="xMidYMid meet">

<g transform="translate(0.000000,64.000000) scale(0.100000,-0.100000)"
fill="#000000" stroke="none">
<path d="M20 607 c0 -7 29 -41 64 -76 l65 -64 -38 -27 c-48 -35 -101 -99 -101
-123 0 -29 104 -125 164 -153 69 -31 164 -40 233 -21 l52 14 68 -69 c37 -37
73 -68 80 -68 27 0 11 28 -51 89 l-64 64 48 38 c53 42 90 88 90 114 0 27 -105
124 -164 151 -69 31 -164 40 -233 21 l-52 -14 -68 69 c-65 66 -93 82 -93 55z
m398 -143 c54 -18 134 -73 165 -116 l20 -27 -27 -36 c-15 -20 -45 -48 -67 -62
l-40 -26 -29 28 c-23 22 -27 32 -20 46 6 10 10 27 10 39 0 28 -24 21 -28 -8
-5 -35 -22 -25 -22 12 0 19 -7 42 -16 50 -8 9 -31 16 -50 16 -37 0 -47 17 -12
22 29 4 36 28 8 28 -12 0 -29 -4 -39 -10 -14 -7 -24 -4 -41 15 -18 19 -20 26
-9 29 8 2 21 7 29 9 32 11 120 6 168 -9z m-215 -52 c19 -20 24 -31 17 -42 -5
-8 -10 -34 -10 -57 0 -58 44 -103 101 -103 22 0 48 4 58 10 14 7 24 4 41 -15
22 -23 22 -25 4 -32 -10 -5 -55 -8 -99 -8 -72 0 -86 4 -143 34 -57 31 -132 99
-132 120 0 23 105 121 130 121 3 0 18 -12 33 -28z m57 -86 c0 -19 7 -42 16
-50 8 -9 31 -16 50 -16 19 0 34 -4 34 -10 0 -19 -79 -11 -100 10 -21 21 -29
100 -10 100 6 0 10 -15 10 -34z m85 13 c11 -17 -1 -21 -15 -4 -8 9 -8 15 -2
15 6 0 14 -5 17 -11z m-29 -46 c-7 -7 -26 7 -26 19 0 6 6 6 15 -2 9 -7 13 -15
11 -17z"/>
</g>
</svg>
